<svg width="24" height="38" viewBox="0 0 24 38" fill="none" xmlns="http://www.w3.org/2000/svg">
<path d="M12.0692 23.2616C8.43454 26.7937 3.80865 25.3083 1.41311 23.2451L1.09921 24.3015L1.0166 25.4733V26.3976L1.09921 27.2889L1.29746 28.3617L1.5618 29.0879L1.94178 30.0122L2.33828 30.7384L2.80087 31.4812L3.32954 32.1414L4.02343 32.9336L4.79991 33.6103L5.72509 34.2871L6.68331 34.8482L7.64153 35.2774L8.64931 35.657L9.75622 35.9376L10.9127 36.1356H12.6804L13.523 36.0861L14.4151 35.9871L15.6212 35.657L16.8272 35.2114L18.7602 34.155L20.4949 32.62L21.8331 30.953L22.6426 29.319L23.0887 27.685L23.2208 26.7112L23.2539 25.6549L23.1878 24.8131L23.0391 23.9383L22.8243 23.2286C17.1411 19.1354 13.1915 22.171 12.0692 23.2616Z" fill="#FBB718"/>
<path d="M11.573 0.668018C10.9568 1.78571 10.4433 2.7107 9.98111 3.59715C9.72435 4.05965 8.55611 6.21796 7.37503 8.41481C6.19395 10.5988 4.96152 12.8856 4.65342 13.4894C4.33247 14.0932 3.79328 15.0696 3.4595 15.6734C3.12572 16.2772 2.52234 17.3949 2.12437 18.1658C1.71356 18.9366 1.31559 19.6817 1.21288 19.8359C0.943288 20.2727 0.391262 21.9942 0.185857 23.0605C-0.353331 25.8483 0.301398 29.1243 1.88045 31.5396C2.68923 32.7729 2.95882 33.0812 4.02436 34.0191C7.60611 37.218 12.677 37.976 17.0676 35.9975C17.9662 35.5864 19.6095 34.4173 20.4824 33.5694C22.7034 31.3854 24 28.2764 24 25.116C24 22.8164 23.4736 21.1206 21.7534 17.9217C21.0601 16.6498 20.3155 15.2623 20.0845 14.8384C19.8662 14.4144 18.9162 12.6544 17.9662 10.92C17.0291 9.18564 16.0791 7.42558 15.848 7.00163C14.7568 4.98464 14.4615 4.43221 13.5115 2.69786C12.9595 1.67009 12.4203 0.642323 12.3304 0.411076C12.2406 0.179829 12.1122 -3.05176e-05 12.0608 -3.05176e-05C11.9966 -3.05176e-05 11.7784 0.3083 11.573 0.668018ZM12.5743 3.52007C12.7027 3.80271 13.0622 4.4836 13.3446 5.01033C13.6399 5.53706 14.3716 6.89886 14.975 8.0294C15.5784 9.15994 16.1176 10.1363 16.1689 10.2134C16.2588 10.3419 16.7723 11.2926 17.902 13.4252C18.2358 14.0547 18.5568 14.6328 18.6081 14.7099C18.6595 14.7741 19.0574 15.5321 19.5068 16.38C19.9561 17.2279 20.4696 18.2043 20.6622 18.564C21.6892 20.4397 22.0615 21.2234 22.3439 22.1612C22.6135 23.0605 22.652 23.4331 22.652 25.1803C22.6392 27.0816 22.6264 27.2229 22.2284 28.3792C21.7534 29.7667 21.4324 30.3319 20.3284 31.7066C18.9034 33.518 17.0676 34.7128 14.6926 35.4065C13.7554 35.6763 13.2548 35.7406 12.0608 35.7406C8.76152 35.7534 5.80882 34.3531 3.70342 31.7837C1.97031 29.6639 1.03315 26.465 1.40545 23.9598C1.70072 21.9556 2.00883 21.172 3.90882 17.6647C4.10139 17.305 4.47369 16.6113 4.74328 16.1231C5.01288 15.622 5.52639 14.6842 5.88585 14.0161C6.24531 13.3481 6.54057 12.77 6.54057 12.7186C6.54057 12.6287 7.14395 11.4467 7.86287 10.1492C8.06827 9.76376 8.97976 8.08079 9.87841 6.42351C11.8811 2.69786 11.9068 2.64647 12.1379 2.83918C12.2406 2.91626 12.4331 3.22459 12.5743 3.52007Z" fill="white"/>
</svg>
